<svg version="1.1" id="Layer_1" xmlns="http://www.w3.org/2000/svg" xmlns:xlink="http://www.w3.org/1999/xlink" x="0px" y="0px"
	 width="100%" viewBox="0 0 512 512" xml:space="preserve">
<path fill="#FF7700" opacity="1.000000" stroke="none" 
	d="
M309.987427,391.000000 
	C286.036652,391.572571 269.966644,379.555176 257.946838,360.684052 
	C248.186234,345.359894 243.438705,328.368408 242.091705,310.452362 
	C241.247925,299.229492 241.326660,287.936951 241.006287,276.675262 
	C240.960953,275.081940 241.000000,273.486237 241.000000,271.891663 
	C240.539490,271.731201 240.078964,271.570770 239.618454,271.410339 
	C231.085678,288.363770 222.495621,305.288788 214.053574,322.287262 
	C211.379517,327.671570 209.255432,333.327850 206.612946,338.729187 
	C196.811905,358.763031 187.949936,379.290802 175.076492,397.700165 
	C164.441650,412.908234 151.932785,426.045319 133.700089,431.528748 
	C111.683708,438.150055 90.854256,435.549072 72.293503,420.819641 
	C55.882832,407.796478 45.161606,390.683990 38.188332,371.398895 
	C32.634949,356.040649 28.164585,340.215088 24.381289,324.319031 
	C21.858673,313.719940 20.737782,302.668304 20.137627,291.756073 
	C18.991888,270.923737 17.675634,250.016632 18.299454,229.196564 
	C18.842278,211.079834 21.901606,193.033493 23.960438,174.968765 
	C25.627455,160.341934 29.564962,146.277786 34.999237,132.626968 
	C43.238651,111.929695 57.793758,97.927963 79.764839,93.311264 
	C97.084663,89.671921 113.347984,93.472511 126.817497,105.469376 
	C135.536942,113.235504 139.367111,123.994583 141.932266,135.044968 
	C145.469955,150.284958 145.520981,165.856018 144.888611,181.364594 
	C144.495804,190.998199 143.009537,200.586594 142.044632,210.198349 
	C141.937149,211.269058 142.030121,212.359894 142.030121,214.675705 
	C147.456787,206.136124 151.865677,198.399902 157.038483,191.213562 
	C170.470108,172.553604 183.881485,153.857697 198.015594,135.733444 
	C205.512726,126.119797 214.084030,117.234230 222.908279,108.791153 
	C235.725754,96.527313 250.076355,86.429733 267.616547,81.755600 
	C287.710876,76.400856 306.020874,79.233376 320.867889,94.569275 
	C330.770660,104.798103 335.977173,117.898293 337.772217,131.777115 
	C339.460602,144.831467 339.657684,158.116287 339.854401,171.309494 
	C339.947723,177.570511 338.511871,183.854324 337.672119,190.944092 
	C347.656067,178.853333 356.519104,167.098801 366.468842,156.350159 
	C376.992432,144.981506 388.108398,134.062103 399.793976,123.898903 
	C409.489258,115.466743 420.056091,107.908310 430.841125,100.891678 
	C442.940643,93.019852 456.634033,88.851761 471.092163,91.203949 
	C485.027283,93.471054 495.357544,102.860489 496.147461,118.719421 
	C496.748383,130.785065 492.008942,140.850723 485.963043,150.370651 
	C468.339752,178.120529 450.062836,205.455963 432.499725,233.243088 
	C425.903168,243.679688 420.416290,254.834061 414.689270,265.799988 
	C406.534729,281.414124 398.740570,297.216522 390.578094,312.826416 
	C382.588318,328.106110 375.109161,343.733643 365.973511,358.310852 
	C356.550507,373.346619 343.306000,384.613098 325.482178,389.037933 
	C320.617188,390.245697 315.484589,390.375488 309.987427,391.000000 
z"/>
</svg>